<svg width="30" height="30" viewBox="0 0 30 30" fill="none" xmlns="http://www.w3.org/2000/svg">
<path d="M21.6262 13.125H28.9987C29.0878 13.125 29.175 13.1505 29.2502 13.1983C29.3253 13.2461 29.3853 13.3143 29.4231 13.395C29.4608 13.4756 29.4748 13.5654 29.4635 13.6537C29.4521 13.7421 29.4157 13.8253 29.3587 13.8938L25.6725 18.3188C25.6285 18.3715 25.5734 18.414 25.5112 18.4431C25.449 18.4722 25.3812 18.4873 25.3125 18.4873C25.2438 18.4873 25.1759 18.4722 25.1137 18.4431C25.0515 18.414 24.9965 18.3715 24.9525 18.3188L21.2662 13.8938C21.2092 13.8253 21.1729 13.7421 21.1615 13.6537C21.1501 13.5654 21.1641 13.4756 21.2019 13.395C21.2397 13.3143 21.2996 13.2461 21.3748 13.1983C21.4499 13.1505 21.5372 13.125 21.6262 13.125ZM1.00123 16.875H8.37373C8.4628 16.875 8.55001 16.8496 8.62516 16.8018C8.70031 16.754 8.76029 16.6857 8.79806 16.6051C8.83584 16.5244 8.84985 16.4346 8.83845 16.3463C8.82706 16.258 8.79073 16.1747 8.73373 16.1063L5.04748 11.6813C5.00349 11.6285 4.94844 11.5861 4.88623 11.5569C4.82402 11.5278 4.75617 11.5127 4.68748 11.5127C4.61879 11.5127 4.55094 11.5278 4.48873 11.5569C4.42652 11.5861 4.37147 11.6285 4.32748 11.6813L0.641228 16.1063C0.584224 16.1747 0.547898 16.258 0.536505 16.3463C0.525111 16.4346 0.539122 16.5244 0.576896 16.6051C0.614669 16.6857 0.674643 16.754 0.749793 16.8018C0.824943 16.8496 0.912159 16.875 1.00123 16.875Z" fill="white"/>
<path fill-rule="evenodd" clip-rule="evenodd" d="M15 5.62501C12.09 5.62501 9.48745 6.95063 7.76808 9.03376C7.6913 9.13327 7.5953 9.21633 7.48578 9.278C7.37626 9.33966 7.25546 9.37868 7.13056 9.39272C7.00566 9.40676 6.87921 9.39555 6.75873 9.35974C6.63825 9.32393 6.52621 9.26427 6.42925 9.18429C6.33229 9.10431 6.25241 9.00565 6.19435 8.89418C6.13628 8.7827 6.10123 8.66069 6.09127 8.5354C6.0813 8.41011 6.09664 8.28409 6.13635 8.16485C6.17607 8.0456 6.23936 7.93556 6.32245 7.84126C7.69531 6.17912 9.51668 4.94628 11.5699 4.28936C13.6232 3.63245 15.822 3.5791 17.9047 4.13568C19.9874 4.69225 21.8664 5.83532 23.3182 7.42892C24.7701 9.02253 25.7336 10.9996 26.0943 13.125H24.1875C23.7546 11.0078 22.6038 9.10499 20.9297 7.73841C19.2556 6.37182 17.161 5.62527 15 5.62501ZM5.81245 16.875C6.16741 18.6087 7.00561 20.2066 8.23022 21.484C9.45483 22.7615 11.0159 23.6664 12.733 24.0943C14.4501 24.5222 16.2533 24.4555 17.9341 23.902C19.615 23.3485 21.1049 22.3307 22.2318 20.9663C22.3086 20.8667 22.4046 20.7837 22.5141 20.722C22.6236 20.6604 22.7444 20.6213 22.8693 20.6073C22.9942 20.5933 23.1207 20.6045 23.2412 20.6403C23.3617 20.6761 23.4737 20.7358 23.5707 20.8157C23.6676 20.8957 23.7475 20.9944 23.8056 21.1058C23.8636 21.2173 23.8987 21.3393 23.9086 21.4646C23.9186 21.5899 23.9033 21.7159 23.8636 21.8352C23.8238 21.9544 23.7606 22.0645 23.6775 22.1588C22.3046 23.8209 20.4832 25.0537 18.43 25.7107C16.3767 26.3676 14.178 26.4209 12.0952 25.8643C10.0125 25.3078 8.13353 24.1647 6.68168 22.5711C5.22984 20.9775 4.26627 19.0004 3.90558 16.875H5.81245Z" fill="white"/>
</svg>
