<svg width="40" height="40" viewBox="0 0 40 40" fill="none" xmlns="http://www.w3.org/2000/svg">
<path fill-rule="evenodd" clip-rule="evenodd" d="M10 20C10 19.6685 10.1317 19.3505 10.3661 19.1161C10.6005 18.8817 10.9185 18.75 11.25 18.75H25.7325L20.365 13.385C20.2488 13.2688 20.1566 13.1308 20.0937 12.979C20.0308 12.8271 19.9984 12.6644 19.9984 12.5C19.9984 12.3356 20.0308 12.1729 20.0937 12.021C20.1566 11.8692 20.2488 11.7312 20.365 11.615C20.4812 11.4988 20.6192 11.4066 20.771 11.3437C20.9229 11.2808 21.0856 11.2484 21.25 11.2484C21.4144 11.2484 21.5771 11.2808 21.729 11.3437C21.8808 11.4066 22.0188 11.4988 22.135 11.615L29.635 19.115C29.7514 19.2311 29.8438 19.3691 29.9068 19.5209C29.9698 19.6728 30.0022 19.8356 30.0022 20C30.0022 20.1644 29.9698 20.3272 29.9068 20.4791C29.8438 20.631 29.7514 20.7689 29.635 20.885L22.135 28.385C21.9003 28.6197 21.5819 28.7516 21.25 28.7516C20.9181 28.7516 20.5997 28.6197 20.365 28.385C20.1303 28.1503 19.9984 27.8319 19.9984 27.5C19.9984 27.1681 20.1303 26.8497 20.365 26.615L25.7325 21.25L11.25 21.25C10.9185 21.25 10.6005 21.1183 10.3661 20.8839C10.1317 20.6495 10 20.3315 10 20Z" fill="white"/>
</svg>
